<svg width="19" height="19" viewBox="0 0 19 19" fill="none" xmlns="http://www.w3.org/2000/svg">
<path d="M12.3097 7.37343L7.37349 12.3096C7.25556 12.4235 7.0976 12.4865 6.93365 12.4851C6.76969 12.4836 6.61286 12.4179 6.49692 12.302C6.38098 12.186 6.31522 12.0292 6.31379 11.8652C6.31237 11.7013 6.3754 11.5433 6.4893 11.4254L11.4255 6.48925C11.5435 6.37534 11.7014 6.31231 11.8654 6.31374C12.0293 6.31516 12.1862 6.38093 12.3021 6.49686C12.418 6.6128 12.4838 6.76963 12.4852 6.93359C12.4866 7.09754 12.4236 7.25549 12.3097 7.37343ZM7.67865 7.67857C7.81501 7.54237 7.90792 7.36879 7.94561 7.17977C7.98329 6.99076 7.96407 6.79481 7.89037 6.61673C7.81666 6.43864 7.69179 6.28642 7.53156 6.17932C7.37132 6.07222 7.18291 6.01505 6.99018 6.01505C6.79744 6.01505 6.60904 6.07222 6.4488 6.17932C6.28856 6.28642 6.16369 6.43864 6.08999 6.61673C6.01628 6.79481 5.99706 6.99076 6.03475 7.17977C6.07243 7.36879 6.16534 7.54237 6.30171 7.67857C6.48438 7.86102 6.732 7.9635 6.99018 7.9635C7.24835 7.9635 7.49597 7.86102 7.67865 7.67857ZM11.1204 11.119C10.984 11.2552 10.8911 11.4288 10.8534 11.6178C10.8157 11.8068 10.8349 12.0027 10.9086 12.1808C10.9823 12.3589 11.1072 12.5111 11.2675 12.6182C11.4277 12.7253 11.6161 12.7825 11.8088 12.7825C12.0016 12.7825 12.19 12.7253 12.3502 12.6182C12.5105 12.5111 12.6353 12.3589 12.709 12.1808C12.7827 12.0027 12.8019 11.8068 12.7643 11.6178C12.7266 11.4288 12.6337 11.2552 12.4973 11.119C12.3146 10.9365 12.067 10.8341 11.8088 10.8341C11.5507 10.8341 11.303 10.9365 11.1204 11.119ZM18.3752 10.8188C18.3256 11.1482 18.1881 11.4582 17.9773 11.7161C17.7665 11.974 17.4901 12.1704 17.1771 12.2846L15.9553 12.7398L16.3055 13.9954C16.3945 14.3155 16.3968 14.6536 16.3124 14.9749C16.2279 15.2963 16.0595 15.5894 15.8246 15.8244C15.5896 16.0593 15.2965 16.2277 14.9751 16.3122C14.6537 16.3966 14.3157 16.3943 13.9955 16.3053L12.7399 15.9551L12.2859 17.1769C12.1718 17.4897 11.9757 17.766 11.718 17.9768C11.4603 18.1876 11.1506 18.3251 10.8215 18.375C10.7214 18.3911 10.6202 18.3995 10.5188 18.4C10.2368 18.4004 9.95833 18.3363 9.70476 18.2128C9.45119 18.0893 9.22916 17.9095 9.05558 17.6872L8.24768 16.6654L7.16464 17.3858C6.88753 17.5703 6.56631 17.6777 6.23397 17.697C5.90163 17.7164 5.57012 17.6469 5.27349 17.4958C4.97686 17.3447 4.72579 17.1173 4.54604 16.8371C4.3663 16.5569 4.26436 16.2339 4.25069 15.9013L4.19816 14.6007L2.89751 14.5482C2.56488 14.5345 2.24189 14.4325 1.96168 14.2528C1.68147 14.0731 1.45414 13.822 1.30302 13.5254C1.1519 13.2287 1.08244 12.8972 1.10178 12.5649C1.12111 12.2326 1.22853 11.9113 1.41302 11.6342L2.13338 10.5512L1.11162 9.74207C0.850745 9.53558 0.649484 9.26341 0.528473 8.95349C0.407463 8.64357 0.371055 8.30704 0.422985 7.97841C0.474915 7.64978 0.613314 7.34088 0.82399 7.08336C1.03467 6.82586 1.31004 6.62901 1.62187 6.51301L2.84373 6.05904L2.49356 4.80343C2.40426 4.48321 2.40167 4.14502 2.48604 3.82347C2.5704 3.50193 2.7387 3.20857 2.97371 2.97344C3.20871 2.73831 3.50198 2.56986 3.82349 2.48532C4.14499 2.40078 4.48319 2.40319 4.80346 2.49231L6.05909 2.84248L6.51306 1.62189C6.62907 1.31006 6.82592 1.03469 7.08343 0.824014C7.34094 0.613341 7.64985 0.474945 7.97849 0.423015C8.30712 0.371086 8.64366 0.407493 8.95358 0.528502C9.26351 0.649511 9.53568 0.850769 9.74218 1.11164L10.5513 2.13338L11.6344 1.41304C11.9115 1.22855 12.2327 1.12113 12.565 1.1018C12.8974 1.08247 13.2289 1.15192 13.5255 1.30304C13.8221 1.45415 14.0732 1.68148 14.253 1.96169C14.4327 2.24189 14.5347 2.56488 14.5483 2.89751L14.6009 4.19814L15.9015 4.25066C16.2341 4.26433 16.5571 4.36627 16.8373 4.54601C17.1175 4.72576 17.3449 4.97683 17.496 5.27345C17.6471 5.57008 17.7166 5.90158 17.6972 6.23392C17.6779 6.56626 17.5705 6.88747 17.386 7.16457L16.6656 8.24635L17.6874 9.05549C17.9498 9.26058 18.1522 9.53254 18.2732 9.84282C18.3942 10.1531 18.4295 10.4902 18.3752 10.8188ZM16.912 10.0372L15.4375 8.8704C15.3145 8.77302 15.2325 8.63293 15.208 8.47794C15.1834 8.32295 15.218 8.1644 15.305 8.03375L16.3442 6.47174C16.4058 6.37942 16.4417 6.27238 16.4482 6.16161C16.4548 6.05084 16.4317 5.94032 16.3814 5.8414C16.3311 5.74248 16.2554 5.65873 16.1621 5.59874C16.0687 5.53874 15.9611 5.50467 15.8502 5.50002L13.9743 5.42373C13.8173 5.41725 13.6685 5.35189 13.5574 5.24065C13.4464 5.12942 13.3814 4.98047 13.3752 4.82344L13.2977 2.94753C13.2928 2.83677 13.2586 2.72929 13.1985 2.63611C13.1384 2.54293 13.0547 2.46741 12.9558 2.41726C12.8569 2.36712 12.7465 2.34417 12.6358 2.35077C12.5251 2.35736 12.4182 2.39326 12.326 2.45479L10.7652 3.49279C10.6347 3.5805 10.4758 3.6157 10.3205 3.59135C10.1651 3.56701 10.0247 3.48491 9.92727 3.36148L8.76169 1.88827C8.69281 1.80152 8.60214 1.73463 8.49893 1.69442C8.39572 1.65422 8.28369 1.64215 8.17428 1.65945C8.06488 1.67675 7.96204 1.7228 7.87627 1.79289C7.7905 1.86298 7.72489 1.95459 7.68615 2.05835L7.03082 3.81795C6.97683 3.96535 6.86907 4.08685 6.72919 4.15807C6.5893 4.22929 6.42765 4.24494 6.2767 4.20189L4.46829 3.69664C4.36143 3.66656 4.24849 3.66547 4.14106 3.69348C4.03364 3.72149 3.93561 3.7776 3.85705 3.85604C3.77848 3.93447 3.72222 4.03241 3.69403 4.13979C3.66584 4.24716 3.66675 4.36011 3.69666 4.46702L4.20191 6.27664C4.24406 6.42759 4.22799 6.58885 4.15689 6.72851C4.08578 6.86817 3.96483 6.97604 3.81797 7.03076L2.05834 7.68608C1.95458 7.72482 1.86297 7.79043 1.79288 7.8762C1.72279 7.96196 1.67674 8.0648 1.65944 8.1742C1.64214 8.28361 1.65421 8.39564 1.69441 8.49885C1.73461 8.60205 1.80151 8.69273 1.88826 8.7616L3.36149 9.92841C3.48454 10.0258 3.56647 10.1659 3.59103 10.3209C3.61559 10.4759 3.58097 10.6344 3.49406 10.7651L2.45479 12.3271C2.39354 12.4194 2.35791 12.5263 2.35154 12.6369C2.34517 12.7475 2.36829 12.8578 2.41854 12.9565C2.46879 13.0552 2.54437 13.1388 2.63754 13.1987C2.7307 13.2587 2.83811 13.2928 2.94879 13.2975L4.82472 13.3751C4.98153 13.3815 5.13018 13.4467 5.24115 13.5577C5.35212 13.6687 5.41731 13.8173 5.42377 13.9741L5.50131 15.85C5.50596 15.9609 5.54003 16.0685 5.60003 16.1619C5.66002 16.2552 5.74378 16.3309 5.8427 16.3812C5.94162 16.4315 6.05214 16.4546 6.16291 16.448C6.27369 16.4415 6.38073 16.4056 6.47304 16.344L8.03382 15.306C8.16443 15.2186 8.32318 15.1836 8.47845 15.2079C8.63372 15.2322 8.77413 15.3142 8.87174 15.4373L10.0373 16.9106C10.1062 16.9973 10.1969 17.0642 10.3001 17.1044C10.4033 17.1446 10.5153 17.1567 10.6247 17.1394C10.7341 17.1221 10.837 17.076 10.9227 17.0059C11.0085 16.9358 11.0741 16.8442 11.1129 16.7405L11.7682 14.9809C11.8229 14.834 11.9308 14.7131 12.0704 14.642C12.2101 14.5709 12.3714 14.5548 12.5223 14.5969L14.3307 15.1009C14.4377 15.1314 14.5508 15.1326 14.6584 15.1044C14.7659 15.0763 14.864 15.0198 14.9423 14.9408C15.0217 14.8631 15.0785 14.7653 15.1067 14.6578C15.1349 14.5504 15.1334 14.4372 15.1024 14.3305L14.5971 12.5209C14.555 12.37 14.571 12.2087 14.6421 12.0691C14.7132 11.9294 14.8342 11.8215 14.981 11.7668L16.7407 11.1127C16.8444 11.074 16.936 11.0084 17.0061 10.9226C17.0762 10.8369 17.1223 10.734 17.1396 10.6246C17.1569 10.5152 17.1448 10.4032 17.1046 10.3C17.0644 10.1968 16.9987 10.1061 16.912 10.0372Z" fill="#9A5632" stroke="#9A5632" stroke-width="0.8"/>
</svg>
