<svg width="20" height="20" viewBox="0 0 20 20" fill="none" xmlns="http://www.w3.org/2000/svg">
<path d="M10 0C4.48603 0 0 4.48604 0 10C0 15.514 4.48603 20 10 20C15.514 20 20 15.514 20 10C20 4.48604 15.514 0 10 0ZM10 1.5C14.7033 1.5 18.5 5.2967 18.5 10C18.5 12.2281 17.641 14.2459 16.2441 15.7598C15.0508 13.5255 12.7047 12 10 12C7.29527 12 4.94916 13.5255 3.75586 15.7598C2.35902 14.2459 1.5 12.2281 1.5 10C1.5 5.2967 5.29669 1.5 10 1.5ZM10 5C8.895 5 8 5.895 8 7V8C8 9.105 8.895 10 10 10C11.105 10 12 9.105 12 8V7C12 5.895 11.105 5 10 5ZM10 13.5C12.2773 13.5 14.1997 14.8658 15.0742 16.8125C13.658 17.8681 11.9069 18.5 10 18.5C8.09308 18.5 6.34202 17.8681 4.92578 16.8125C5.80027 14.8658 7.72268 13.5 10 13.5Z" fill="#8A8E8A"/>
</svg>
