<svg width="80" height="30" viewBox="0 0 80 30" fill="none" xmlns="http://www.w3.org/2000/svg">
<mask id="mask0_1406_298" style="mask-type:alpha" maskUnits="userSpaceOnUse" x="14" y="6" width="18" height="18">
<rect x="14" y="6" width="18" height="18" fill="#D9D9D9"/>
</mask>
<g mask="url(#mask0_1406_298)">
<path d="M20.962 19.6875C20.4492 19.6875 20.0137 19.5085 19.6557 19.1505C19.2977 18.7925 19.1187 18.3571 19.1187 17.8442V9.15581C19.1187 8.64294 19.2977 8.2075 19.6557 7.8495C20.0137 7.4915 20.4492 7.3125 20.962 7.3125H27.4004C27.9133 7.3125 28.3487 7.4915 28.7067 7.8495C29.0647 8.2075 29.2437 8.64294 29.2437 9.15581V17.8442C29.2437 18.3571 29.0647 18.7925 28.7067 19.1505C28.3487 19.5085 27.9133 19.6875 27.4004 19.6875H20.962ZM20.962 18.075H27.4004C27.4582 18.075 27.511 18.0509 27.559 18.0028C27.6072 17.9548 27.6312 17.9019 27.6312 17.8442V9.15581C27.6312 9.09806 27.6072 9.04519 27.559 8.99719C27.511 8.94906 27.4582 8.925 27.4004 8.925H20.962C20.9043 8.925 20.8514 8.94906 20.8034 8.99719C20.7553 9.04519 20.7312 9.09806 20.7312 9.15581V17.8442C20.7312 17.9019 20.7553 17.9548 20.8034 18.0028C20.8514 18.0509 20.9043 18.075 20.962 18.075ZM17.8495 22.8C17.3367 22.8 16.9012 22.621 16.5432 22.263C16.1852 21.905 16.0062 21.4696 16.0062 20.9567V10.6558H17.6187V20.9567C17.6187 21.0144 17.6428 21.0673 17.6909 21.1153C17.7389 21.1634 17.7918 21.1875 17.8495 21.1875H25.9004V22.8H17.8495Z" fill="#9A5632"/>
</g>
<path d="M44.416 21.16C43.584 21.16 42.816 21.0213 42.112 20.744C41.4187 20.456 40.816 20.056 40.304 19.544C39.8027 19.0213 39.408 18.408 39.12 17.704C38.8427 16.9893 38.704 16.2107 38.704 15.368C38.704 14.536 38.848 13.7733 39.136 13.08C39.4347 12.376 39.8453 11.768 40.368 11.256C40.9013 10.7333 41.52 10.328 42.224 10.04C42.928 9.752 43.7013 9.608 44.544 9.608C45.0773 9.608 45.6 9.68267 46.112 9.832C46.624 9.97067 47.0987 10.1787 47.536 10.456C47.9733 10.7227 48.3467 11.048 48.656 11.432L47.088 13.176C46.8533 12.9307 46.6027 12.7173 46.336 12.536C46.0693 12.3547 45.7867 12.216 45.488 12.12C45.1893 12.0133 44.8693 11.96 44.528 11.96C44.0693 11.96 43.6427 12.0453 43.248 12.216C42.8533 12.376 42.5067 12.6053 42.208 12.904C41.92 13.2027 41.6907 13.5653 41.52 13.992C41.36 14.408 41.28 14.872 41.28 15.384C41.28 15.9067 41.36 16.3813 41.52 16.808C41.6907 17.224 41.9253 17.5813 42.224 17.88C42.5333 18.1787 42.896 18.408 43.312 18.568C43.7387 18.728 44.2133 18.808 44.736 18.808C45.0667 18.808 45.392 18.76 45.712 18.664C46.032 18.568 46.3253 18.4347 46.592 18.264C46.8587 18.0933 47.0987 17.896 47.312 17.672L48.528 19.624C48.272 19.912 47.9253 20.1733 47.488 20.408C47.0507 20.6427 46.5653 20.8293 46.032 20.968C45.4987 21.096 44.96 21.16 44.416 21.16ZM54.1505 21.16C53.2865 21.16 52.5132 20.9733 51.8305 20.6C51.1478 20.216 50.6092 19.6933 50.2145 19.032C49.8198 18.3707 49.6225 17.6133 49.6225 16.76C49.6225 15.9067 49.8198 15.1493 50.2145 14.488C50.6092 13.8267 51.1478 13.304 51.8305 12.92C52.5132 12.536 53.2865 12.344 54.1505 12.344C55.0145 12.344 55.7878 12.536 56.4705 12.92C57.1532 13.304 57.6865 13.8267 58.0705 14.488C58.4652 15.1493 58.6625 15.9067 58.6625 16.76C58.6625 17.6133 58.4652 18.3707 58.0705 19.032C57.6865 19.6933 57.1532 20.216 56.4705 20.6C55.7878 20.9733 55.0145 21.16 54.1505 21.16ZM54.1505 19.112C54.5558 19.112 54.9185 19.0107 55.2385 18.808C55.5585 18.5947 55.8092 18.312 55.9905 17.96C56.1718 17.608 56.2625 17.208 56.2625 16.76C56.2625 16.3013 56.1718 15.896 55.9905 15.544C55.8092 15.1813 55.5585 14.8987 55.2385 14.696C54.9185 14.4933 54.5558 14.392 54.1505 14.392C53.7452 14.392 53.3772 14.4987 53.0465 14.712C52.7265 14.9147 52.4758 15.192 52.2945 15.544C52.1132 15.896 52.0278 16.3013 52.0385 16.76C52.0278 17.208 52.1132 17.608 52.2945 17.96C52.4758 18.312 52.7265 18.5947 53.0465 18.808C53.3772 19.0107 53.7452 19.112 54.1505 19.112ZM60.3548 24.52V12.52H62.6268L62.7068 14.44L62.2748 14.296C62.3388 13.944 62.5148 13.624 62.8028 13.336C63.1014 13.048 63.4694 12.8187 63.9068 12.648C64.3441 12.4667 64.8081 12.376 65.2988 12.376C66.0348 12.376 66.6854 12.5627 67.2508 12.936C67.8161 13.3093 68.2641 13.8267 68.5948 14.488C68.9254 15.1387 69.0908 15.896 69.0908 16.76C69.0908 17.6027 68.9254 18.3547 68.5948 19.016C68.2748 19.6773 67.8268 20.2 67.2508 20.584C66.6748 20.9573 66.0188 21.144 65.2828 21.144C64.8028 21.144 64.3388 21.0533 63.8908 20.872C63.4534 20.68 63.0801 20.4347 62.7708 20.136C62.4721 19.8267 62.2801 19.4907 62.1948 19.128L62.7388 18.904V24.52H60.3548ZM64.7388 19.112C65.1441 19.112 65.5014 19.016 65.8108 18.824C66.1201 18.6213 66.3601 18.344 66.5308 17.992C66.7014 17.64 66.7868 17.2293 66.7868 16.76C66.7868 16.2907 66.7014 15.88 66.5308 15.528C66.3601 15.1653 66.1201 14.888 65.8108 14.696C65.5121 14.4933 65.1548 14.392 64.7388 14.392C64.3228 14.392 63.9601 14.4933 63.6508 14.696C63.3414 14.888 63.0961 15.1653 62.9148 15.528C62.7441 15.88 62.6588 16.2907 62.6588 16.76C62.6588 17.2293 62.7441 17.64 62.9148 17.992C63.0961 18.344 63.3414 18.6213 63.6508 18.824C63.9601 19.016 64.3228 19.112 64.7388 19.112ZM71.6314 24.68L73.5354 20.264L73.5514 21.576L69.4394 12.52H72.1274L74.0954 17.192C74.1807 17.3947 74.266 17.6187 74.3514 17.864C74.4367 18.0987 74.5007 18.328 74.5434 18.552L74.1754 18.728C74.2394 18.5573 74.314 18.3547 74.3994 18.12C74.4847 17.8747 74.57 17.6187 74.6554 17.352L76.3674 12.52H79.0714L75.4874 21L74.0314 24.68H71.6314Z" fill="#874B2C"/>
</svg>
