<svg width="68" height="184" viewBox="0 0 68 184" fill="none" xmlns="http://www.w3.org/2000/svg">
<rect width="68" height="184" fill="#C16B3E"/>
<path d="M45 134.16L34.952 139.92H32.584V138C32.584 137.232 32.4773 136.56 32.264 135.984C32.0293 135.387 31.6987 134.896 31.272 134.512C30.8453 134.107 30.3333 133.829 29.736 133.68V139.92H27.368V133.712C26.8133 133.84 26.3227 134.064 25.896 134.384C25.4693 134.683 25.1387 135.088 24.904 135.6C24.648 136.091 24.52 136.688 24.52 137.392V139.92H22.152V125.488H24.52V130.512C24.9253 130.149 25.3627 129.851 25.832 129.616C26.3013 129.36 26.8133 129.189 27.368 129.104V125.488H29.736V129.04C31.3147 129.253 32.552 129.861 33.448 130.864C34.3227 131.867 34.92 133.157 35.24 134.736L45 128.464V134.16ZM45 122.391H43.864L43.048 118.487H25.528V122.391H24.168C23.9227 120.962 23.4853 119.671 22.856 118.519C22.2267 117.357 21.3733 116.199 20.296 115.047L20.552 113.591H43.048L43.864 109.591H45V122.391ZM50.024 106.337L49 107.105C48.4773 106.412 47.9173 105.836 47.32 105.377C46.7333 104.919 46.2267 104.689 45.8 104.689C45.4267 104.689 45.1333 104.839 44.92 105.137C44.7067 105.436 44.504 105.783 44.312 106.177C44.12 106.572 43.8747 106.919 43.576 107.217C43.2667 107.516 42.824 107.665 42.248 107.665C41.5333 107.665 40.9467 107.415 40.488 106.913C40.0187 106.401 39.784 105.761 39.784 104.993C39.784 104.108 40.12 103.415 40.792 102.913C41.4533 102.401 42.36 102.145 43.512 102.145C44.8667 102.145 46.1147 102.513 47.256 103.249C48.408 103.985 49.3307 105.015 50.024 106.337ZM45.336 93.364C45.336 94.5693 45.16 95.6467 44.808 96.596C44.4453 97.5453 43.9547 98.292 43.336 98.836C42.7067 99.3693 41.9973 99.636 41.208 99.636C40.5253 99.636 39.9653 99.428 39.528 99.012C39.0907 98.596 38.872 98.0627 38.872 97.412C38.872 96.836 39.0213 96.404 39.32 96.116C39.6187 95.828 39.9867 95.604 40.424 95.444C40.8613 95.2733 41.2987 95.092 41.736 94.9C42.1733 94.708 42.5413 94.4307 42.84 94.068C43.1387 93.6947 43.288 93.156 43.288 92.452C43.288 91.6627 43.0853 90.964 42.68 90.356C42.264 89.748 41.6987 89.2733 40.984 88.932C40.2587 88.5907 39.432 88.42 38.504 88.42C37.5653 88.42 36.7387 88.6227 36.024 89.028C35.2987 89.4333 34.7333 89.9933 34.328 90.708C33.912 91.4227 33.704 92.2493 33.704 93.188C33.704 93.7533 33.784 94.3133 33.944 94.868C34.0933 95.412 34.3227 95.9027 34.632 96.34V97.668L21.032 95.78V87.156C20.872 87.0173 20.68 86.8787 20.456 86.74C20.2213 86.6013 19.8853 86.4147 19.448 86.18L19.992 85.044L25.384 86.436V94.292L29.48 94.82C29.3307 94.4147 29.2453 94.004 29.224 93.588C29.192 93.172 29.176 92.756 29.176 92.34C29.176 90.6973 29.48 89.2627 30.088 88.036C30.696 86.8093 31.5493 85.86 32.648 85.188C33.736 84.5053 35.016 84.164 36.488 84.164C38.1733 84.164 39.6827 84.5693 41.016 85.38C42.3493 86.18 43.4053 87.2733 44.184 88.66C44.952 90.0467 45.336 91.6147 45.336 93.364ZM45.336 72.6677C45.336 73.8837 45.0267 75.0144 44.408 76.0597C43.7787 77.0944 42.904 78.0011 41.784 78.7797C40.6533 79.5584 39.336 80.1664 37.832 80.6037C36.328 81.0411 34.696 81.2597 32.936 81.2597C31.1547 81.2597 29.5013 81.0411 27.976 80.6037C26.44 80.1664 25.1013 79.5584 23.96 78.7797C22.808 77.9904 21.912 77.0784 21.272 76.0437C20.6213 74.9984 20.296 73.8731 20.296 72.6677C20.296 71.4624 20.6213 70.3424 21.272 69.3077C21.9227 68.2624 22.824 67.3451 23.976 66.5557C25.128 65.7557 26.472 65.1371 28.008 64.6997C29.5333 64.2517 31.176 64.0278 32.936 64.0278C34.6853 64.0278 36.312 64.2464 37.816 64.6837C39.32 65.1211 40.6373 65.7344 41.768 66.5237C42.888 67.3131 43.7627 68.2304 44.392 69.2757C45.0213 70.3211 45.336 71.4517 45.336 72.6677ZM43.416 72.6677C43.416 72.1557 43.2667 71.7237 42.968 71.3717C42.6587 71.0091 42.1253 70.7157 41.368 70.4917C40.6 70.2677 39.5333 70.1024 38.168 69.9957C36.792 69.8891 35.0427 69.8357 32.92 69.8357C30.7973 69.8357 29.0427 69.8891 27.656 69.9957C26.2693 70.1024 25.1813 70.2677 24.392 70.4917C23.592 70.7157 23.032 71.0091 22.712 71.3717C22.3813 71.7237 22.216 72.1557 22.216 72.6677C22.216 73.1797 22.3813 73.6171 22.712 73.9797C23.032 74.3317 23.592 74.6197 24.392 74.8438C25.1813 75.0571 26.2693 75.2171 27.656 75.3237C29.0427 75.4197 30.7973 75.4677 32.92 75.4677C35.0533 75.4677 36.808 75.4197 38.184 75.3237C39.5493 75.2171 40.616 75.0571 41.384 74.8438C42.1413 74.6197 42.6693 74.3317 42.968 73.9797C43.2667 73.6171 43.416 73.1797 43.416 72.6677ZM45.336 52.2927C45.336 53.5087 45.0267 54.6394 44.408 55.6847C43.7787 56.7194 42.904 57.6261 41.784 58.4047C40.6533 59.1834 39.336 59.7914 37.832 60.2287C36.328 60.6661 34.696 60.8847 32.936 60.8847C31.1547 60.8847 29.5013 60.6661 27.976 60.2287C26.44 59.7914 25.1013 59.1834 23.96 58.4047C22.808 57.6154 21.912 56.7034 21.272 55.6687C20.6213 54.6234 20.296 53.4981 20.296 52.2927C20.296 51.0874 20.6213 49.9674 21.272 48.9327C21.9227 47.8874 22.824 46.9701 23.976 46.1807C25.128 45.3807 26.472 44.7621 28.008 44.3247C29.5333 43.8767 31.176 43.6528 32.936 43.6528C34.6853 43.6528 36.312 43.8714 37.816 44.3087C39.32 44.7461 40.6373 45.3594 41.768 46.1487C42.888 46.9381 43.7627 47.8554 44.392 48.9007C45.0213 49.9461 45.336 51.0767 45.336 52.2927ZM43.416 52.2927C43.416 51.7807 43.2667 51.3487 42.968 50.9967C42.6587 50.6341 42.1253 50.3407 41.368 50.1167C40.6 49.8927 39.5333 49.7274 38.168 49.6207C36.792 49.5141 35.0427 49.4607 32.92 49.4607C30.7973 49.4607 29.0427 49.5141 27.656 49.6207C26.2693 49.7274 25.1813 49.8927 24.392 50.1167C23.592 50.3407 23.032 50.6341 22.712 50.9967C22.3813 51.3487 22.216 51.7807 22.216 52.2927C22.216 52.8047 22.3813 53.2421 22.712 53.6047C23.032 53.9567 23.592 54.2447 24.392 54.4688C25.1813 54.6821 26.2693 54.8421 27.656 54.9487C29.0427 55.0447 30.7973 55.0927 32.92 55.0927C35.0533 55.0927 36.808 55.0447 38.184 54.9487C39.5493 54.8421 40.616 54.6821 41.384 54.4688C42.1413 54.2447 42.6693 53.9567 42.968 53.6047C43.2667 53.2421 43.416 52.8047 43.416 52.2927Z" fill="white"/>
</svg>
