<svg width="68" height="184" viewBox="0 0 68 184" fill="none" xmlns="http://www.w3.org/2000/svg">
<rect width="68" height="184" fill="#C16B3E"/>
<path d="M45 160.172H43.832L43.208 157.468H22.376L21.784 160.172H20.632V140.796L27.592 140.252V141.484C26.76 141.74 25.896 142.049 25 142.412C24.104 142.775 23.24 143.223 22.408 143.756V152.06H43.208L43.832 148.46H45V160.172ZM36.536 146.62C35.3627 146.823 34.1627 147.212 32.936 147.788V152.476H31.256V147.788C30.648 147.479 30.0507 147.233 29.464 147.052C28.8667 146.871 28.2747 146.727 27.688 146.62V145.372H36.536V146.62ZM45 139.316H43.88L43.256 136.596H21.848L21 139.316H20.232L18.712 132.388V131.716H43.256L43.88 129.172H45V139.316ZM45.336 123.186C45.336 124.477 45 125.496 44.328 126.242C43.656 126.989 42.7387 127.362 41.576 127.362C40.52 127.362 39.608 127.032 38.84 126.37C38.072 125.709 37.432 124.696 36.92 123.33C36.3973 121.954 35.9867 120.205 35.688 118.082H33.368C31.9387 118.082 30.9787 118.216 30.488 118.482C29.9973 118.738 29.752 119.25 29.752 120.018C29.752 120.808 29.944 121.432 30.328 121.89C30.7013 122.349 31.2187 122.578 31.88 122.578C32.1147 122.578 32.3547 122.557 32.6 122.514C32.8347 122.472 33.064 122.45 33.288 122.45C33.896 122.45 34.4027 122.664 34.808 123.09C35.2027 123.506 35.4 124.024 35.4 124.642C35.4 125.261 35.2027 125.762 34.808 126.146C34.4027 126.53 33.88 126.722 33.24 126.722C32.5787 126.722 31.9173 126.504 31.256 126.066C30.5947 125.629 30.0027 125.016 29.48 124.226C28.424 122.562 27.896 120.562 27.896 118.226C27.896 117.085 28.0347 116.168 28.312 115.474C28.5787 114.77 28.968 114.242 29.48 113.89C29.8747 113.645 30.3867 113.464 31.016 113.346C31.6453 113.229 32.5467 113.17 33.72 113.17H40.248C41.1867 113.17 41.8693 113.08 42.296 112.898C42.712 112.717 42.92 112.413 42.92 111.986C42.92 111.506 42.6693 111.032 42.168 110.562L43.192 109.842C43.9173 110.525 44.456 111.24 44.808 111.986C45.16 112.733 45.336 113.56 45.336 114.466C45.336 115.501 45.128 116.285 44.712 116.818C44.296 117.352 43.6667 117.698 42.824 117.858V117.986C43.6773 118.776 44.312 119.597 44.728 120.45C45.1333 121.304 45.336 122.216 45.336 123.186ZM42.328 120.274C42.328 119.837 42.2533 119.432 42.104 119.058C41.9547 118.685 41.7307 118.36 41.432 118.082H37.176C37.3787 119.106 37.608 119.912 37.864 120.498C38.12 121.074 38.44 121.48 38.824 121.714C39.1973 121.949 39.6827 122.066 40.28 122.066C40.9733 122.066 41.4907 121.922 41.832 121.634C42.1627 121.346 42.328 120.893 42.328 120.274ZM45.336 102.527C45.336 104.17 44.9787 105.338 44.264 106.031C43.5493 106.725 42.4027 107.071 40.824 107.071H29.8V109.311L28.824 109.503L23.96 103.119L24.12 102.143H28.216V97.2472L29.8 97.7112V102.143H40.504C42.2 102.143 43.048 101.482 43.048 100.159C43.048 99.7859 42.984 99.4339 42.856 99.1032C42.728 98.7726 42.4987 98.4686 42.168 98.1912L43.192 97.4552C43.896 98.0099 44.4293 98.7299 44.792 99.6152C45.1547 100.501 45.336 101.471 45.336 102.527ZM45 87.829H43.864L43.048 83.925H25.528V87.829H24.168C23.9227 86.3997 23.4853 85.109 22.856 83.957C22.2267 82.7943 21.3733 81.637 20.296 80.485L20.552 79.029H43.048L43.864 75.029H45V87.829ZM45.336 64.8552C45.336 66.0712 45.0267 67.2019 44.408 68.2472C43.7787 69.2819 42.904 70.1886 41.784 70.9672C40.6533 71.7459 39.336 72.3539 37.832 72.7912C36.328 73.2286 34.696 73.4472 32.936 73.4472C31.1547 73.4472 29.5013 73.2286 27.976 72.7912C26.44 72.3539 25.1013 71.7459 23.96 70.9672C22.808 70.1779 21.912 69.2659 21.272 68.2312C20.6213 67.1859 20.296 66.0606 20.296 64.8552C20.296 63.6499 20.6213 62.5299 21.272 61.4952C21.9227 60.4499 22.824 59.5326 23.976 58.7432C25.128 57.9432 26.472 57.3246 28.008 56.8872C29.5333 56.4392 31.176 56.2153 32.936 56.2153C34.6853 56.2153 36.312 56.4339 37.816 56.8712C39.32 57.3086 40.6373 57.9219 41.768 58.7112C42.888 59.5006 43.7627 60.4179 44.392 61.4632C45.0213 62.5086 45.336 63.6392 45.336 64.8552ZM43.416 64.8552C43.416 64.3432 43.2667 63.9112 42.968 63.5592C42.6587 63.1966 42.1253 62.9032 41.368 62.6792C40.6 62.4552 39.5333 62.2899 38.168 62.1832C36.792 62.0766 35.0427 62.0232 32.92 62.0232C30.7973 62.0232 29.0427 62.0766 27.656 62.1832C26.2693 62.2899 25.1813 62.4552 24.392 62.6792C23.592 62.9032 23.032 63.1966 22.712 63.5592C22.3813 63.9112 22.216 64.3432 22.216 64.8552C22.216 65.3672 22.3813 65.8046 22.712 66.1672C23.032 66.5192 23.592 66.8072 24.392 67.0312C25.1813 67.2446 26.2693 67.4046 27.656 67.5112C29.0427 67.6072 30.7973 67.6552 32.92 67.6552C35.0533 67.6552 36.808 67.6072 38.184 67.5112C39.5493 67.4046 40.616 67.2446 41.384 67.0312C42.1413 66.8072 42.6693 66.5192 42.968 66.1672C43.2667 65.8046 43.416 65.3672 43.416 64.8552ZM45 47.6162L20.632 32.9282V29.6162L45 44.3202V47.6162ZM35.288 47.0882C35.288 48.3042 34.9573 49.4029 34.296 50.3842C33.6347 51.3549 32.7387 52.1229 31.608 52.6882C30.4667 53.2536 29.192 53.5362 27.784 53.5362C26.376 53.5362 25.1013 53.2482 23.96 52.6722C22.808 52.0962 21.896 51.3229 21.224 50.3522C20.5413 49.3709 20.2 48.2776 20.2 47.0722C20.2 45.8776 20.5413 44.7896 21.224 43.8082C21.9067 42.8269 22.824 42.0482 23.976 41.4722C25.1173 40.8856 26.3867 40.5922 27.784 40.5922C29.192 40.5922 30.4667 40.8802 31.608 41.4562C32.7387 42.0322 33.6347 42.8109 34.296 43.7922C34.9573 44.7736 35.288 45.8722 35.288 47.0882ZM33.944 47.0882C33.944 46.7362 33.7893 46.4589 33.48 46.2562C33.16 46.0429 32.5573 45.8936 31.672 45.8082C30.7867 45.7122 29.4907 45.6642 27.784 45.6642C26.088 45.6642 24.792 45.7122 23.896 45.8082C22.9893 45.8936 22.3653 46.0429 22.024 46.2562C21.6827 46.4589 21.512 46.7362 21.512 47.0882C21.512 47.4296 21.6827 47.7016 22.024 47.9042C22.3653 48.1069 22.9893 48.2562 23.896 48.3522C24.792 48.4376 26.088 48.4802 27.784 48.4802C29.4907 48.4802 30.7867 48.4376 31.672 48.3522C32.5573 48.2562 33.16 48.1069 33.48 47.9042C33.7893 47.7016 33.944 47.4296 33.944 47.0882ZM45.336 30.1602C45.336 31.3656 45.0053 32.4589 44.344 33.4402C43.672 34.4109 42.7707 35.1842 41.64 35.7602C40.5093 36.3362 39.24 36.6242 37.832 36.6242C36.4133 36.6242 35.1333 36.3362 33.992 35.7602C32.8507 35.1736 31.944 34.3949 31.272 33.4242C30.5893 32.4429 30.248 31.3549 30.248 30.1602C30.248 28.9549 30.5893 27.8616 31.272 26.8802C31.9547 25.8882 32.872 25.1042 34.024 24.5282C35.1653 23.9416 36.4347 23.6482 37.832 23.6482C39.24 23.6482 40.5093 23.9416 41.64 24.5282C42.7707 25.1042 43.672 25.8829 44.344 26.8642C45.0053 27.8456 45.336 28.9442 45.336 30.1602ZM43.992 30.1602C43.992 29.8082 43.8373 29.5309 43.528 29.3282C43.208 29.1149 42.6053 28.9656 41.72 28.8802C40.8347 28.7842 39.5387 28.7362 37.832 28.7362C36.136 28.7362 34.8347 28.7842 33.928 28.8802C33.0213 28.9656 32.3973 29.1149 32.056 29.3282C31.7147 29.5309 31.544 29.8082 31.544 30.1602C31.544 30.4909 31.7147 30.7576 32.056 30.9602C32.3973 31.1629 33.0213 31.3122 33.928 31.4082C34.8347 31.4936 36.1413 31.5362 37.848 31.5362C39.544 31.5362 40.8347 31.4936 41.72 31.4082C42.6053 31.3122 43.208 31.1629 43.528 30.9602C43.8373 30.7576 43.992 30.4909 43.992 30.1602Z" fill="white"/>
</svg>
