<svg width="68" height="184" viewBox="0 0 68 184" fill="none" xmlns="http://www.w3.org/2000/svg">
<rect width="68" height="184" fill="#C16B3E"/>
<path d="M45 137.16L34.952 142.92H32.584V141C32.584 140.232 32.4773 139.56 32.264 138.984C32.0293 138.387 31.6987 137.896 31.272 137.512C30.8453 137.107 30.3333 136.829 29.736 136.68V142.92H27.368V136.712C26.8133 136.84 26.3227 137.064 25.896 137.384C25.4693 137.683 25.1387 138.088 24.904 138.6C24.648 139.091 24.52 139.688 24.52 140.392V142.92H22.152V128.488H24.52V133.512C24.9253 133.149 25.3627 132.851 25.832 132.616C26.3013 132.36 26.8133 132.189 27.368 132.104V128.488H29.736V132.04C31.3147 132.253 32.552 132.861 33.448 133.864C34.3227 134.867 34.92 136.157 35.24 137.736L45 131.464V137.16ZM45.336 119.119C45.336 120.335 45.1387 121.434 44.744 122.415C44.3493 123.386 43.8213 124.159 43.16 124.735C42.4987 125.311 41.7627 125.599 40.952 125.599C40.248 125.599 39.6773 125.397 39.24 124.991C38.8027 124.586 38.584 124.042 38.584 123.359C38.584 122.773 38.744 122.325 39.064 122.015C39.3733 121.695 39.7627 121.445 40.232 121.263C40.7013 121.071 41.1707 120.874 41.64 120.671C42.1093 120.469 42.504 120.191 42.824 119.839C43.1333 119.487 43.288 118.981 43.288 118.319C43.288 117.658 43.1067 117.093 42.744 116.623C42.3813 116.154 41.864 115.791 41.192 115.535C40.52 115.279 39.72 115.151 38.792 115.151C37.6613 115.151 36.6907 115.343 35.88 115.727C35.0587 116.101 34.4293 116.634 33.992 117.327C33.544 118.01 33.32 118.821 33.32 119.759C33.32 120.005 33.3307 120.293 33.352 120.623C33.3733 120.954 33.4107 121.237 33.464 121.471L32.088 121.967C31.4267 120.271 30.552 118.933 29.464 117.951C28.3653 116.959 27.2133 116.463 26.008 116.463C25.1653 116.463 24.4987 116.698 24.008 117.167C23.5173 117.637 23.272 118.282 23.272 119.103C23.272 119.967 23.5493 120.799 24.104 121.599C24.6587 122.399 25.384 123.013 26.28 123.439L25.832 124.607C24.7227 124.362 23.752 123.898 22.92 123.215C22.088 122.533 21.4427 121.69 20.984 120.687C20.5253 119.685 20.296 118.581 20.296 117.375C20.296 116.213 20.504 115.194 20.92 114.319C21.336 113.445 21.9173 112.762 22.664 112.271C23.4 111.77 24.264 111.519 25.256 111.519C26.0773 111.519 26.84 111.727 27.544 112.143C28.2373 112.549 28.8293 113.087 29.32 113.759C29.8 114.431 30.136 115.173 30.328 115.983H30.456C30.6267 114.202 31.2987 112.767 32.472 111.679C33.6347 110.581 35.1227 110.031 36.936 110.031C38.0987 110.031 39.1867 110.266 40.2 110.735C41.2133 111.194 42.104 111.839 42.872 112.671C43.64 113.503 44.2427 114.469 44.68 115.567C45.1173 116.666 45.336 117.85 45.336 119.119ZM50.024 105.65L49 106.418C48.4773 105.724 47.9173 105.148 47.32 104.69C46.7333 104.231 46.2267 104.002 45.8 104.002C45.4267 104.002 45.1333 104.151 44.92 104.45C44.7067 104.748 44.504 105.095 44.312 105.49C44.12 105.884 43.8747 106.231 43.576 106.53C43.2667 106.828 42.824 106.978 42.248 106.978C41.5333 106.978 40.9467 106.727 40.488 106.226C40.0187 105.714 39.784 105.074 39.784 104.306C39.784 103.42 40.12 102.727 40.792 102.226C41.4533 101.714 42.36 101.458 43.512 101.458C44.8667 101.458 46.1147 101.826 47.256 102.562C48.408 103.298 49.3307 104.327 50.024 105.65ZM45.336 90.0115C45.336 91.2275 45.0267 92.3582 44.408 93.4035C43.7787 94.4382 42.904 95.3448 41.784 96.1235C40.6533 96.9022 39.336 97.5102 37.832 97.9475C36.328 98.3848 34.696 98.6035 32.936 98.6035C31.1547 98.6035 29.5013 98.3848 27.976 97.9475C26.44 97.5102 25.1013 96.9022 23.96 96.1235C22.808 95.3342 21.912 94.4222 21.272 93.3875C20.6213 92.3422 20.296 91.2168 20.296 90.0115C20.296 88.8062 20.6213 87.6862 21.272 86.6515C21.9227 85.6062 22.824 84.6888 23.976 83.8995C25.128 83.0995 26.472 82.4808 28.008 82.0435C29.5333 81.5955 31.176 81.3715 32.936 81.3715C34.6853 81.3715 36.312 81.5902 37.816 82.0275C39.32 82.4648 40.6373 83.0782 41.768 83.8675C42.888 84.6568 43.7627 85.5742 44.392 86.6195C45.0213 87.6648 45.336 88.7955 45.336 90.0115ZM43.416 90.0115C43.416 89.4995 43.2667 89.0675 42.968 88.7155C42.6587 88.3528 42.1253 88.0595 41.368 87.8355C40.6 87.6115 39.5333 87.4462 38.168 87.3395C36.792 87.2328 35.0427 87.1795 32.92 87.1795C30.7973 87.1795 29.0427 87.2328 27.656 87.3395C26.2693 87.4462 25.1813 87.6115 24.392 87.8355C23.592 88.0595 23.032 88.3528 22.712 88.7155C22.3813 89.0675 22.216 89.4995 22.216 90.0115C22.216 90.5235 22.3813 90.9608 22.712 91.3235C23.032 91.6755 23.592 91.9635 24.392 92.1875C25.1813 92.4008 26.2693 92.5608 27.656 92.6675C29.0427 92.7635 30.7973 92.8115 32.92 92.8115C35.0533 92.8115 36.808 92.7635 38.184 92.6675C39.5493 92.5608 40.616 92.4008 41.384 92.1875C42.1413 91.9635 42.6693 91.6755 42.968 91.3235C43.2667 90.9608 43.416 90.5235 43.416 90.0115ZM45.336 69.6365C45.336 70.8525 45.0267 71.9832 44.408 73.0285C43.7787 74.0632 42.904 74.9698 41.784 75.7485C40.6533 76.5272 39.336 77.1352 37.832 77.5725C36.328 78.0098 34.696 78.2285 32.936 78.2285C31.1547 78.2285 29.5013 78.0098 27.976 77.5725C26.44 77.1352 25.1013 76.5272 23.96 75.7485C22.808 74.9592 21.912 74.0472 21.272 73.0125C20.6213 71.9672 20.296 70.8418 20.296 69.6365C20.296 68.4312 20.6213 67.3112 21.272 66.2765C21.9227 65.2312 22.824 64.3138 23.976 63.5245C25.128 62.7245 26.472 62.1058 28.008 61.6685C29.5333 61.2205 31.176 60.9965 32.936 60.9965C34.6853 60.9965 36.312 61.2152 37.816 61.6525C39.32 62.0898 40.6373 62.7032 41.768 63.4925C42.888 64.2818 43.7627 65.1992 44.392 66.2445C45.0213 67.2898 45.336 68.4205 45.336 69.6365ZM43.416 69.6365C43.416 69.1245 43.2667 68.6925 42.968 68.3405C42.6587 67.9778 42.1253 67.6845 41.368 67.4605C40.6 67.2365 39.5333 67.0712 38.168 66.9645C36.792 66.8578 35.0427 66.8045 32.92 66.8045C30.7973 66.8045 29.0427 66.8578 27.656 66.9645C26.2693 67.0712 25.1813 67.2365 24.392 67.4605C23.592 67.6845 23.032 67.9778 22.712 68.3405C22.3813 68.6925 22.216 69.1245 22.216 69.6365C22.216 70.1485 22.3813 70.5858 22.712 70.9485C23.032 71.3005 23.592 71.5885 24.392 71.8125C25.1813 72.0258 26.2693 72.1858 27.656 72.2925C29.0427 72.3885 30.7973 72.4365 32.92 72.4365C35.0533 72.4365 36.808 72.3885 38.184 72.2925C39.5493 72.1858 40.616 72.0258 41.384 71.8125C42.1413 71.5885 42.6693 71.3005 42.968 70.9485C43.2667 70.5858 43.416 70.1485 43.416 69.6365ZM45.336 49.2615C45.336 50.4775 45.0267 51.6082 44.408 52.6535C43.7787 53.6882 42.904 54.5948 41.784 55.3735C40.6533 56.1522 39.336 56.7602 37.832 57.1975C36.328 57.6348 34.696 57.8535 32.936 57.8535C31.1547 57.8535 29.5013 57.6348 27.976 57.1975C26.44 56.7602 25.1013 56.1522 23.96 55.3735C22.808 54.5842 21.912 53.6722 21.272 52.6375C20.6213 51.5922 20.296 50.4668 20.296 49.2615C20.296 48.0562 20.6213 46.9362 21.272 45.9015C21.9227 44.8562 22.824 43.9388 23.976 43.1495C25.128 42.3495 26.472 41.7308 28.008 41.2935C29.5333 40.8455 31.176 40.6215 32.936 40.6215C34.6853 40.6215 36.312 40.8402 37.816 41.2775C39.32 41.7148 40.6373 42.3282 41.768 43.1175C42.888 43.9068 43.7627 44.8242 44.392 45.8695C45.0213 46.9148 45.336 48.0455 45.336 49.2615ZM43.416 49.2615C43.416 48.7495 43.2667 48.3175 42.968 47.9655C42.6587 47.6028 42.1253 47.3095 41.368 47.0855C40.6 46.8615 39.5333 46.6962 38.168 46.5895C36.792 46.4828 35.0427 46.4295 32.92 46.4295C30.7973 46.4295 29.0427 46.4828 27.656 46.5895C26.2693 46.6962 25.1813 46.8615 24.392 47.0855C23.592 47.3095 23.032 47.6028 22.712 47.9655C22.3813 48.3175 22.216 48.7495 22.216 49.2615C22.216 49.7735 22.3813 50.2108 22.712 50.5735C23.032 50.9255 23.592 51.2135 24.392 51.4375C25.1813 51.6508 26.2693 51.8108 27.656 51.9175C29.0427 52.0135 30.7973 52.0615 32.92 52.0615C35.0533 52.0615 36.808 52.0135 38.184 51.9175C39.5493 51.8108 40.616 51.6508 41.384 51.4375C42.1413 51.2135 42.6693 50.9255 42.968 50.5735C43.2667 50.2108 43.416 49.7735 43.416 49.2615Z" fill="white"/>
</svg>
