<svg width="56" height="182" viewBox="0 0 56 182" fill="none" xmlns="http://www.w3.org/2000/svg">
<mask id="path-1-inside-1_5_759" fill="white">
<path d="M0 182L-7.95547e-06 0L56 -2.44784e-06L56 182L0 182Z"/>
</mask>
<path d="M0 182L-7.95547e-06 0L56 -2.44784e-06L56 182L0 182Z" fill="#3168CF"/>
<path d="M56 182L57 182L57 178.967L56 178.967L55 178.967L55 182L56 182ZM56 172.9L57 172.9L57 166.833L56 166.833L55 166.833L55 172.9L56 172.9ZM56 160.767L57 160.767L57 154.7L56 154.7L55 154.7L55 160.767L56 160.767ZM56 148.633L57 148.633L57 142.567L56 142.567L55 142.567L55 148.633L56 148.633ZM56 136.5L57 136.5L57 130.433L56 130.433L55 130.433L55 136.5L56 136.5ZM56 124.367L57 124.367L57 118.3L56 118.3L55 118.3L55 124.367L56 124.367ZM56 112.233L57 112.233L57 106.167L56 106.167L55 106.167L55 112.233L56 112.233ZM56 100.1L57 100.1L57 94.0333L56 94.0333L55 94.0333L55 100.1L56 100.1ZM56 87.9667L57 87.9667L57 81.9L56 81.9L55 81.9L55 87.9667L56 87.9667ZM56 75.8333L57 75.8333L57 69.7667L56 69.7667L55 69.7667L55 75.8333L56 75.8333ZM56 63.7L57 63.7L57 57.6333L56 57.6333L55 57.6333L55 63.7L56 63.7ZM56 51.5667L57 51.5667L57 45.5L56 45.5L55 45.5L55 51.5667L56 51.5667ZM56 39.4333L57 39.4333L57 33.3667L56 33.3667L55 33.3667L55 39.4333L56 39.4333ZM56 27.3L57 27.3L57 21.2334L56 21.2334L55 21.2334L55 27.3L56 27.3ZM56 15.1667L57 15.1667L57 9.10002L56 9.10002L55 9.10002L55 15.1667L56 15.1667ZM56 3.03335L57 3.03335L57 -2.49155e-06L56 -2.44784e-06L55 -2.40413e-06L55 3.03335L56 3.03335ZM56 182L58 182L58 178.967L56 178.967L54 178.967L54 182L56 182ZM56 172.9L58 172.9L58 166.833L56 166.833L54 166.833L54 172.9L56 172.9ZM56 160.767L58 160.767L58 154.7L56 154.7L54 154.7L54 160.767L56 160.767ZM56 148.633L58 148.633L58 142.567L56 142.567L54 142.567L54 148.633L56 148.633ZM56 136.5L58 136.5L58 130.433L56 130.433L54 130.433L54 136.5L56 136.5ZM56 124.367L58 124.367L58 118.3L56 118.3L54 118.3L54 124.367L56 124.367ZM56 112.233L58 112.233L58 106.167L56 106.167L54 106.167L54 112.233L56 112.233ZM56 100.1L58 100.1L58 94.0333L56 94.0333L54 94.0333L54 100.1L56 100.1ZM56 87.9667L58 87.9667L58 81.9L56 81.9L54 81.9L54 87.9667L56 87.9667ZM56 75.8333L58 75.8333L58 69.7667L56 69.7667L54 69.7667L54 75.8333L56 75.8333ZM56 63.7L58 63.7L58 57.6333L56 57.6333L54 57.6333L54 63.7L56 63.7ZM56 51.5667L58 51.5667L58 45.5L56 45.5L54 45.5L54 51.5667L56 51.5667ZM56 39.4333L58 39.4333L58 33.3667L56 33.3667L54 33.3667L54 39.4333L56 39.4333ZM56 27.3L58 27.3L58 21.2334L56 21.2334L54 21.2334L54 27.3L56 27.3ZM56 15.1667L58 15.1667L58 9.10002L56 9.10002L54 9.10002L54 15.1667L56 15.1667ZM56 3.03335L58 3.03335L58 -2.53526e-06L56 -2.44784e-06L54 -2.36042e-06L54 3.03335L56 3.03335Z" fill="white" mask="url(#path-1-inside-1_5_759)"/>
<path d="M39 156.532L37.992 156.532L37.224 152.548L19.4 152.548L19.4 156.5L18.232 156.5C17.9547 155.167 17.5013 153.924 16.872 152.772C16.232 151.62 15.3733 150.474 14.296 149.332L14.552 148.116L37.224 148.116L37.992 144.084L39 144.084L39 156.532ZM39.336 133.793C39.336 134.988 39.0267 136.103 38.408 137.137C37.7787 138.161 36.904 139.057 35.784 139.825C34.6533 140.593 33.336 141.196 31.832 141.633C30.328 142.06 28.696 142.273 26.936 142.273C25.1547 142.273 23.5013 142.06 21.976 141.633C20.44 141.196 19.1013 140.593 17.96 139.825C16.808 139.047 15.912 138.145 15.272 137.121C14.6213 136.087 14.296 134.977 14.296 133.793C14.296 132.599 14.6213 131.489 15.272 130.465C15.9227 129.431 16.824 128.524 17.976 127.745C19.128 126.956 20.472 126.343 22.008 125.905C23.5333 125.457 25.176 125.233 26.936 125.233C28.6853 125.233 30.312 125.452 31.816 125.889C33.32 126.316 34.6373 126.924 35.768 127.713C36.888 128.492 37.7627 129.399 38.392 130.433C39.0213 131.468 39.336 132.588 39.336 133.793ZM37.592 133.793C37.592 133.196 37.4267 132.689 37.096 132.273C36.7547 131.847 36.1893 131.505 35.4 131.249C34.6 130.983 33.512 130.791 32.136 130.673C30.7493 130.545 29.0107 130.481 26.92 130.481C24.8293 130.481 23.0853 130.545 21.688 130.673C20.28 130.791 19.1653 130.983 18.344 131.249C17.512 131.505 16.92 131.847 16.568 132.273C16.216 132.689 16.04 133.196 16.04 133.793C16.04 134.38 16.216 134.881 16.568 135.297C16.92 135.713 17.5067 136.049 18.328 136.305C19.1493 136.561 20.264 136.748 21.672 136.865C23.0693 136.983 24.8187 137.041 26.92 137.041C29.0213 137.041 30.7653 136.983 32.152 136.865C33.5387 136.748 34.6267 136.561 35.416 136.305C36.2053 136.049 36.7653 135.713 37.096 135.297C37.4267 134.881 37.592 134.38 37.592 133.793ZM39 117.354L14.632 102.602L14.632 99.6097L39 114.362L39 117.354ZM28.856 116.442C28.856 117.583 28.536 118.612 27.896 119.53C27.256 120.436 26.3867 121.156 25.288 121.69C24.1893 122.212 22.9573 122.474 21.592 122.474C20.2267 122.474 18.9893 122.207 17.88 121.674C16.76 121.13 15.8747 120.404 15.224 119.498C14.5627 118.58 14.232 117.562 14.232 116.442C14.232 115.311 14.5627 114.292 15.224 113.386C15.8853 112.468 16.776 111.738 17.896 111.194C19.0053 110.65 20.2373 110.378 21.592 110.378C22.9467 110.378 24.1733 110.65 25.272 111.194C26.3707 111.727 27.2453 112.452 27.896 113.37C28.536 114.287 28.856 115.311 28.856 116.442ZM27.576 116.442C27.576 116.047 27.4213 115.738 27.112 115.514C26.8027 115.279 26.216 115.114 25.352 115.018C24.488 114.911 23.2347 114.858 21.592 114.858C19.9493 114.858 18.6907 114.911 17.816 115.018C16.9413 115.114 16.3387 115.279 16.008 115.514C15.6667 115.748 15.496 116.058 15.496 116.442C15.496 116.826 15.6667 117.135 16.008 117.37C16.3387 117.594 16.9413 117.759 17.816 117.866C18.6907 117.962 19.9493 118.01 21.592 118.01C23.2453 118.01 24.504 117.962 25.368 117.866C26.2213 117.759 26.8027 117.594 27.112 117.37C27.4213 117.135 27.576 116.826 27.576 116.442ZM39.336 100.554C39.336 101.684 39.016 102.708 38.376 103.626C37.7253 104.532 36.8507 105.252 35.752 105.786C34.6533 106.319 33.4267 106.586 32.072 106.586C30.696 106.586 29.4533 106.319 28.344 105.786C27.2347 105.242 26.3547 104.516 25.704 103.61C25.0427 102.692 24.712 101.674 24.712 100.554C24.712 99.4231 25.0427 98.3991 25.704 97.4817C26.3653 96.5644 27.2507 95.8337 28.36 95.2897C29.4693 94.7457 30.7067 94.4737 32.072 94.4737C33.4267 94.4737 34.6533 94.7457 35.752 95.2897C36.8507 95.8337 37.7253 96.5644 38.376 97.4817C39.016 98.3991 39.336 99.4231 39.336 100.554ZM38.04 100.554C38.04 100.17 37.8853 99.8604 37.576 99.6257C37.2667 99.3911 36.6853 99.2257 35.832 99.1297C34.968 99.0231 33.7147 98.9697 32.072 98.9697C30.4293 98.9697 29.1653 99.0231 28.28 99.1297C27.3947 99.2257 26.7867 99.3911 26.456 99.6257C26.1147 99.8604 25.944 100.17 25.944 100.554C25.944 100.938 26.1147 101.242 26.456 101.466C26.7867 101.69 27.3947 101.855 28.28 101.962C29.1653 102.058 30.4293 102.106 32.072 102.106C33.7147 102.106 34.968 102.058 35.832 101.962C36.6853 101.855 37.2667 101.69 37.576 101.466C37.8853 101.242 38.04 100.938 38.04 100.554ZM39.336 71.5875C39.336 73.4755 39.0107 75.1662 38.36 76.6595C37.7093 78.1422 36.8133 79.4062 35.672 80.4515C34.52 81.4968 33.192 82.2968 31.688 82.8515C30.1733 83.3955 28.5467 83.6675 26.808 83.6675C25.0693 83.6675 23.4427 83.3955 21.928 82.8515C20.4133 82.2968 19.0853 81.4968 17.944 80.4515C16.8027 79.4062 15.912 78.1422 15.272 76.6595C14.6213 75.1662 14.296 73.4755 14.296 71.5875C14.296 69.7102 14.6213 68.0248 15.272 66.5315C15.912 65.0275 16.8027 63.7528 17.944 62.7075C19.0853 61.6622 20.4133 60.8622 21.928 60.3075C23.4427 59.7528 25.0693 59.4755 26.808 59.4755C28.5467 59.4755 30.1733 59.7528 31.688 60.3075C33.192 60.8622 34.52 61.6622 35.672 62.7075C36.8133 63.7528 37.7093 65.0275 38.36 66.5315C39.0107 68.0248 39.336 69.7102 39.336 71.5875ZM37.608 71.5875C37.608 70.5955 37.4 69.7315 36.984 68.9955C36.568 68.2595 36.0027 67.6408 35.288 67.1395C34.5627 66.6382 33.7413 66.2382 32.824 65.9395C31.896 65.6302 30.9147 65.4115 29.88 65.2835C28.8453 65.1448 27.8107 65.0755 26.776 65.0755C25.7627 65.0755 24.7493 65.1395 23.736 65.2675C22.712 65.3955 21.7413 65.6088 20.824 65.9075C19.9067 66.2062 19.0907 66.6062 18.376 67.1075C17.6613 67.6088 17.1013 68.2275 16.696 68.9635C16.28 69.6995 16.072 70.5742 16.072 71.5875C16.072 72.5795 16.28 73.4435 16.696 74.1795C17.1013 74.9155 17.6613 75.5342 18.376 76.0355C19.0907 76.5262 19.9067 76.9262 20.824 77.2355C21.7413 77.5342 22.712 77.7528 23.736 77.8915C24.76 78.0195 25.784 78.0835 26.808 78.0835C27.832 78.0835 28.8613 78.0195 29.896 77.8915C30.92 77.7528 31.896 77.5342 32.824 77.2355C33.7413 76.9262 34.5627 76.5262 35.288 76.0355C36.0027 75.5342 36.568 74.9208 36.984 74.1955C37.4 73.4595 37.608 72.5902 37.608 71.5875ZM39 56.983L37.96 56.983L37.336 54.279L16.248 54.279L15.656 56.983L14.632 56.983L14.632 38.119L21.592 37.575L21.592 38.679C20.7387 38.9243 19.848 39.2337 18.92 39.607C17.992 39.9697 17.1013 40.4177 16.248 40.951L16.248 49.479L37.336 49.479L37.96 45.879L39 45.879L39 56.983ZM30.552 43.623C29.336 43.8363 28.1147 44.231 26.888 44.807L26.888 49.895L25.336 49.895L25.336 44.807C24.7173 44.4977 24.104 44.2523 23.496 44.071C22.888 43.8897 22.2853 43.7403 21.688 43.623L21.688 42.519L30.552 42.519L30.552 43.623ZM39 35.6392L37.96 35.6392L37.336 32.9352L16.248 32.9352L15.656 35.6392L14.632 35.6392L14.632 16.7752L21.592 16.2312L21.592 17.3352C20.7387 17.5806 19.848 17.8899 18.92 18.2632C17.992 18.6259 17.1013 19.0739 16.248 19.6072L16.248 28.1352L37.336 28.1352L37.96 24.5352L39 24.5352L39 35.6392ZM30.552 22.2792C29.336 22.4926 28.1147 22.8872 26.888 23.4632L26.888 28.5512L25.336 28.5512L25.336 23.4632C24.7173 23.1539 24.104 22.9086 23.496 22.7272C22.888 22.5459 22.2853 22.3966 21.688 22.2792L21.688 21.1752L30.552 21.1752L30.552 22.2792Z" fill="white"/>
</svg>
