<svg width="68" height="182" viewBox="0 0 68 182" fill="none" xmlns="http://www.w3.org/2000/svg">
<mask id="path-1-inside-1_5_821" fill="white">
<path d="M0 182L-7.95547e-06 0L68 -2.97237e-06L68 182L0 182Z"/>
</mask>
<path d="M0 182L-7.95547e-06 0L68 -2.97237e-06L68 182L0 182Z" fill="black"/>
<path d="M68 182L69 182L69 178.967L68 178.967L67 178.967L67 182L68 182ZM68 172.9L69 172.9L69 166.833L68 166.833L67 166.833L67 172.9L68 172.9ZM68 160.767L69 160.767L69 154.7L68 154.7L67 154.7L67 160.767L68 160.767ZM68 148.633L69 148.633L69 142.567L68 142.567L67 142.567L67 148.633L68 148.633ZM68 136.5L69 136.5L69 130.433L68 130.433L67 130.433L67 136.5L68 136.5ZM68 124.367L69 124.367L69 118.3L68 118.3L67 118.3L67 124.367L68 124.367ZM68 112.233L69 112.233L69 106.167L68 106.167L67 106.167L67 112.233L68 112.233ZM68 100.1L69 100.1L69 94.0333L68 94.0333L67 94.0333L67 100.1L68 100.1ZM68 87.9667L69 87.9667L69 81.9L68 81.9L67 81.9L67 87.9667L68 87.9667ZM68 75.8333L69 75.8333L69 69.7667L68 69.7667L67 69.7667L67 75.8333L68 75.8333ZM68 63.7L69 63.7L69 57.6333L68 57.6333L67 57.6333L67 63.7L68 63.7ZM68 51.5667L69 51.5667L69 45.5L68 45.5L67 45.5L67 51.5667L68 51.5667ZM68 39.4333L69 39.4333L69 33.3667L68 33.3667L67 33.3667L67 39.4333L68 39.4333ZM68 27.3L69 27.3L69 21.2333L68 21.2333L67 21.2333L67 27.3L68 27.3ZM68 15.1667L69 15.1667L69 9.10002L68 9.10002L67 9.10002L67 15.1667L68 15.1667ZM68 3.03335L69 3.03335L69 -3.01609e-06L68 -2.97237e-06L67 -2.92866e-06L67 3.03335L68 3.03335ZM68 182L70 182L70 178.967L68 178.967L66 178.967L66 182L68 182ZM68 172.9L70 172.9L70 166.833L68 166.833L66 166.833L66 172.9L68 172.9ZM68 160.767L70 160.767L70 154.7L68 154.7L66 154.7L66 160.767L68 160.767ZM68 148.633L70 148.633L70 142.567L68 142.567L66 142.567L66 148.633L68 148.633ZM68 136.5L70 136.5L70 130.433L68 130.433L66 130.433L66 136.5L68 136.5ZM68 124.367L70 124.367L70 118.3L68 118.3L66 118.3L66 124.367L68 124.367ZM68 112.233L70 112.233L70 106.167L68 106.167L66 106.167L66 112.233L68 112.233ZM68 100.1L70 100.1L70 94.0333L68 94.0333L66 94.0333L66 100.1L68 100.1ZM68 87.9667L70 87.9667L70 81.9L68 81.9L66 81.9L66 87.9667L68 87.9667ZM68 75.8333L70 75.8333L70 69.7667L68 69.7667L66 69.7667L66 75.8333L68 75.8333ZM68 63.7L70 63.7L70 57.6333L68 57.6333L66 57.6333L66 63.7L68 63.7ZM68 51.5667L70 51.5667L70 45.5L68 45.5L66 45.5L66 51.5667L68 51.5667ZM68 39.4333L70 39.4333L70 33.3667L68 33.3667L66 33.3667L66 39.4333L68 39.4333ZM68 27.3L70 27.3L70 21.2333L68 21.2333L66 21.2333L66 27.3L68 27.3ZM68 15.1667L70 15.1667L70 9.10002L68 9.10002L66 9.10002L66 15.1667L68 15.1667ZM68 3.03335L70 3.03335L70 -3.0598e-06L68 -2.97237e-06L66 -2.88495e-06L66 3.03335L68 3.03335Z" fill="white" mask="url(#path-1-inside-1_5_821)"/>
<path d="M45 129.872L34.76 135.76L32.744 135.76L32.744 134.288C32.744 133.392 32.6373 132.613 32.424 131.952C32.2107 131.291 31.88 130.757 31.432 130.352C30.9627 129.925 30.3867 129.648 29.704 129.52L29.704 135.76L27.464 135.76L27.464 129.552C26.8027 129.68 26.248 129.925 25.8 130.288C25.352 130.651 25.0107 131.131 24.776 131.728C24.52 132.325 24.392 133.051 24.392 133.904L24.392 135.76L22.152 135.76L22.152 121.776L24.392 121.776L24.392 127.184C24.7973 126.757 25.256 126.416 25.768 126.16C26.2587 125.883 26.824 125.701 27.464 125.616L27.464 121.776L29.704 121.776L29.704 125.552C31.2613 125.744 32.488 126.352 33.384 127.376C34.2587 128.379 34.8347 129.691 35.112 131.312L45 125.104L45 129.872ZM45 118.407L43.992 118.407L43.224 114.423L25.4 114.423L25.4 118.375L24.232 118.375C23.9547 117.042 23.5013 115.799 22.872 114.647C22.232 113.495 21.3733 112.349 20.296 111.207L20.552 109.991L43.224 109.991L43.992 105.959L45 105.959L45 118.407ZM45.336 95.6685C45.336 96.8632 45.0267 97.9778 44.408 99.0125C43.7787 100.036 42.904 100.932 41.784 101.7C40.6533 102.468 39.336 103.071 37.832 103.508C36.328 103.935 34.696 104.148 32.936 104.148C31.1547 104.148 29.5013 103.935 27.976 103.508C26.44 103.071 25.1013 102.468 23.96 101.7C22.808 100.922 21.912 100.02 21.272 98.9965C20.6213 97.9618 20.296 96.8525 20.296 95.6685C20.296 94.4738 20.6213 93.3645 21.272 92.3405C21.9227 91.3058 22.824 90.3992 23.976 89.6205C25.128 88.8312 26.472 88.2178 28.008 87.7805C29.5333 87.3325 31.176 87.1085 32.936 87.1085C34.6853 87.1085 36.312 87.3272 37.816 87.7645C39.32 88.1912 40.6373 88.7992 41.768 89.5885C42.888 90.3672 43.7627 91.2738 44.392 92.3085C45.0213 93.3432 45.336 94.4632 45.336 95.6685ZM43.592 95.6685C43.592 95.0712 43.4267 94.5645 43.096 94.1485C42.7547 93.7218 42.1893 93.3805 41.4 93.1245C40.6 92.8578 39.512 92.6658 38.136 92.5485C36.7493 92.4205 35.0107 92.3565 32.92 92.3565C30.8293 92.3565 29.0853 92.4205 27.688 92.5485C26.28 92.6658 25.1653 92.8578 24.344 93.1245C23.512 93.3805 22.92 93.7218 22.568 94.1485C22.216 94.5645 22.04 95.0712 22.04 95.6685C22.04 96.2552 22.216 96.7565 22.568 97.1725C22.92 97.5885 23.5067 97.9245 24.328 98.1805C25.1493 98.4365 26.264 98.6232 27.672 98.7405C29.0693 98.8578 30.8187 98.9165 32.92 98.9165C35.0213 98.9165 36.7653 98.8578 38.152 98.7405C39.5387 98.6232 40.6267 98.4365 41.416 98.1805C42.2053 97.9245 42.7653 97.5885 43.096 97.1725C43.4267 96.7565 43.592 96.2552 43.592 95.6685ZM45.336 75.3247C45.336 76.5194 45.0267 77.6341 44.408 78.6687C43.7787 79.6927 42.904 80.5887 41.784 81.3567C40.6533 82.1247 39.336 82.7274 37.832 83.1647C36.328 83.5914 34.696 83.8047 32.936 83.8047C31.1547 83.8047 29.5013 83.5914 27.976 83.1647C26.44 82.7274 25.1013 82.1247 23.96 81.3567C22.808 80.5781 21.912 79.6767 21.272 78.6527C20.6213 77.6181 20.296 76.5087 20.296 75.3247C20.296 74.1301 20.6213 73.0207 21.272 71.9967C21.9227 70.9621 22.824 70.0554 23.976 69.2767C25.128 68.4874 26.472 67.8741 28.008 67.4367C29.5333 66.9887 31.176 66.7647 32.936 66.7647C34.6853 66.7647 36.312 66.9834 37.816 67.4207C39.32 67.8474 40.6373 68.4554 41.768 69.2447C42.888 70.0234 43.7627 70.9301 44.392 71.9647C45.0213 72.9994 45.336 74.1194 45.336 75.3247ZM43.592 75.3247C43.592 74.7274 43.4267 74.2207 43.096 73.8047C42.7547 73.3781 42.1893 73.0367 41.4 72.7807C40.6 72.5141 39.512 72.3221 38.136 72.2047C36.7493 72.0767 35.0107 72.0127 32.92 72.0127C30.8293 72.0127 29.0853 72.0767 27.688 72.2047C26.28 72.3221 25.1653 72.5141 24.344 72.7807C23.512 73.0367 22.92 73.3781 22.568 73.8047C22.216 74.2207 22.04 74.7274 22.04 75.3247C22.04 75.9114 22.216 76.4127 22.568 76.8287C22.92 77.2447 23.5067 77.5807 24.328 77.8367C25.1493 78.0927 26.264 78.2794 27.672 78.3967C29.0693 78.5141 30.8187 78.5727 32.92 78.5727C35.0213 78.5727 36.7653 78.5141 38.152 78.3967C39.5387 78.2794 40.6267 78.0927 41.416 77.8367C42.2053 77.5807 42.7653 77.2447 43.096 76.8287C43.4267 76.4127 43.592 75.9114 43.592 75.3247ZM45.336 54.981C45.336 56.1757 45.0267 57.2903 44.408 58.325C43.7787 59.349 42.904 60.245 41.784 61.013C40.6533 61.781 39.336 62.3837 37.832 62.821C36.328 63.2477 34.696 63.461 32.936 63.461C31.1547 63.461 29.5013 63.2477 27.976 62.821C26.44 62.3837 25.1013 61.781 23.96 61.013C22.808 60.2343 21.912 59.333 21.272 58.309C20.6213 57.2743 20.296 56.165 20.296 54.981C20.296 53.7863 20.6213 52.677 21.272 51.653C21.9227 50.6183 22.824 49.7117 23.976 48.933C25.128 48.1437 26.472 47.5303 28.008 47.093C29.5333 46.645 31.176 46.421 32.936 46.421C34.6853 46.421 36.312 46.6397 37.816 47.077C39.32 47.5037 40.6373 48.1117 41.768 48.901C42.888 49.6797 43.7627 50.5863 44.392 51.621C45.0213 52.6557 45.336 53.7757 45.336 54.981ZM43.592 54.981C43.592 54.3837 43.4267 53.877 43.096 53.461C42.7547 53.0343 42.1893 52.693 41.4 52.437C40.6 52.1703 39.512 51.9783 38.136 51.861C36.7493 51.733 35.0107 51.669 32.92 51.669C30.8293 51.669 29.0853 51.733 27.688 51.861C26.28 51.9783 25.1653 52.1703 24.344 52.437C23.512 52.693 22.92 53.0343 22.568 53.461C22.216 53.877 22.04 54.3837 22.04 54.981C22.04 55.5677 22.216 56.069 22.568 56.485C22.92 56.901 23.5067 57.237 24.328 57.493C25.1493 57.749 26.264 57.9357 27.672 58.053C29.0693 58.1703 30.8187 58.229 32.92 58.229C35.0213 58.229 36.7653 58.1703 38.152 58.053C39.5387 57.9357 40.6267 57.749 41.416 57.493C42.2053 57.237 42.7653 56.901 43.096 56.485C43.4267 56.069 43.592 55.5677 43.592 54.981Z" fill="white"/>
</svg>
