<svg width="68" height="182" viewBox="0 0 68 182" fill="none" xmlns="http://www.w3.org/2000/svg">
<mask id="path-1-inside-1_5_807" fill="white">
<path d="M0 182L-7.95547e-06 0L68 -2.97237e-06L68 182L0 182Z"/>
</mask>
<path d="M0 182L-7.95547e-06 0L68 -2.97237e-06L68 182L0 182Z" fill="#D41C9B"/>
<path d="M68 182L69 182L69 178.967L68 178.967L67 178.967L67 182L68 182ZM68 172.9L69 172.9L69 166.833L68 166.833L67 166.833L67 172.9L68 172.9ZM68 160.767L69 160.767L69 154.7L68 154.7L67 154.7L67 160.767L68 160.767ZM68 148.633L69 148.633L69 142.567L68 142.567L67 142.567L67 148.633L68 148.633ZM68 136.5L69 136.5L69 130.433L68 130.433L67 130.433L67 136.5L68 136.5ZM68 124.367L69 124.367L69 118.3L68 118.3L67 118.3L67 124.367L68 124.367ZM68 112.233L69 112.233L69 106.167L68 106.167L67 106.167L67 112.233L68 112.233ZM68 100.1L69 100.1L69 94.0333L68 94.0333L67 94.0333L67 100.1L68 100.1ZM68 87.9667L69 87.9667L69 81.9L68 81.9L67 81.9L67 87.9667L68 87.9667ZM68 75.8333L69 75.8333L69 69.7667L68 69.7667L67 69.7667L67 75.8333L68 75.8333ZM68 63.7L69 63.7L69 57.6333L68 57.6333L67 57.6333L67 63.7L68 63.7ZM68 51.5667L69 51.5667L69 45.5L68 45.5L67 45.5L67 51.5667L68 51.5667ZM68 39.4333L69 39.4333L69 33.3667L68 33.3667L67 33.3667L67 39.4333L68 39.4333ZM68 27.3L69 27.3L69 21.2333L68 21.2333L67 21.2333L67 27.3L68 27.3ZM68 15.1667L69 15.1667L69 9.10002L68 9.10002L67 9.10002L67 15.1667L68 15.1667ZM68 3.03335L69 3.03335L69 -3.01609e-06L68 -2.97237e-06L67 -2.92866e-06L67 3.03335L68 3.03335ZM68 182L70 182L70 178.967L68 178.967L66 178.967L66 182L68 182ZM68 172.9L70 172.9L70 166.833L68 166.833L66 166.833L66 172.9L68 172.9ZM68 160.767L70 160.767L70 154.7L68 154.7L66 154.7L66 160.767L68 160.767ZM68 148.633L70 148.633L70 142.567L68 142.567L66 142.567L66 148.633L68 148.633ZM68 136.5L70 136.5L70 130.433L68 130.433L66 130.433L66 136.5L68 136.5ZM68 124.367L70 124.367L70 118.3L68 118.3L66 118.3L66 124.367L68 124.367ZM68 112.233L70 112.233L70 106.167L68 106.167L66 106.167L66 112.233L68 112.233ZM68 100.1L70 100.1L70 94.0333L68 94.0333L66 94.0333L66 100.1L68 100.1ZM68 87.9667L70 87.9667L70 81.9L68 81.9L66 81.9L66 87.9667L68 87.9667ZM68 75.8333L70 75.8333L70 69.7667L68 69.7667L66 69.7667L66 75.8333L68 75.8333ZM68 63.7L70 63.7L70 57.6333L68 57.6333L66 57.6333L66 63.7L68 63.7ZM68 51.5667L70 51.5667L70 45.5L68 45.5L66 45.5L66 51.5667L68 51.5667ZM68 39.4333L70 39.4333L70 33.3667L68 33.3667L66 33.3667L66 39.4333L68 39.4333ZM68 27.3L70 27.3L70 21.2333L68 21.2333L66 21.2333L66 27.3L68 27.3ZM68 15.1667L70 15.1667L70 9.10002L68 9.10002L66 9.10002L66 15.1667L68 15.1667ZM68 3.03335L70 3.03335L70 -3.0598e-06L68 -2.97237e-06L66 -2.88495e-06L66 3.03335L68 3.03335Z" fill="white" mask="url(#path-1-inside-1_5_807)"/>
<path d="M45 128.372L34.76 134.26L32.744 134.26L32.744 132.788C32.744 131.892 32.6373 131.113 32.424 130.452C32.2107 129.791 31.88 129.257 31.432 128.852C30.9627 128.425 30.3867 128.148 29.704 128.02L29.704 134.26L27.464 134.26L27.464 128.052C26.8027 128.18 26.248 128.425 25.8 128.788C25.352 129.151 25.0107 129.631 24.776 130.228C24.52 130.825 24.392 131.551 24.392 132.404L24.392 134.26L22.152 134.26L22.152 120.276L24.392 120.276L24.392 125.684C24.7973 125.257 25.256 124.916 25.768 124.66C26.2587 124.383 26.824 124.201 27.464 124.116L27.464 120.276L29.704 120.276L29.704 124.052C31.2613 124.244 32.488 124.852 33.384 125.876C34.2587 126.879 34.8347 128.191 35.112 129.812L45 123.604L45 128.372ZM45 116.907L43.992 116.907L43.224 112.923L25.4 112.923L25.4 116.875L24.232 116.875C23.9547 115.542 23.5013 114.299 22.872 113.147C22.232 111.995 21.3733 110.849 20.296 109.707L20.552 108.491L43.224 108.491L43.992 104.459L45 104.459L45 116.907ZM45.336 97.0377C45.336 98.2111 45.16 99.2617 44.808 100.19C44.4453 101.107 43.96 101.832 43.352 102.366C42.7333 102.888 42.0293 103.15 41.24 103.15C40.5893 103.15 40.0613 102.963 39.656 102.59C39.2507 102.206 39.048 101.704 39.048 101.086C39.048 100.52 39.1973 100.099 39.496 99.8217C39.7947 99.5337 40.1627 99.3097 40.6 99.1497C41.0373 98.9791 41.4747 98.7977 41.912 98.6057C42.3493 98.4137 42.7173 98.1311 43.016 97.7577C43.3147 97.3844 43.464 96.8457 43.464 96.1417C43.464 95.3097 43.24 94.5737 42.792 93.9337C42.344 93.2831 41.7307 92.7764 40.952 92.4137C40.1733 92.0404 39.2933 91.8537 38.312 91.8537C37.2987 91.8537 36.408 92.0671 35.64 92.4937C34.8613 92.9204 34.2533 93.5124 33.816 94.2697C33.368 95.0271 33.144 95.9017 33.144 96.8937C33.144 97.4911 33.2293 98.0671 33.4 98.6217C33.5707 99.1657 33.8267 99.6671 34.168 100.126L34.152 101.198L21.032 99.3897L21.032 90.6857C20.872 90.5471 20.68 90.4084 20.456 90.2697C20.232 90.1311 19.928 89.9551 19.544 89.7417L19.992 88.7497L24.952 90.0777L24.952 98.0137L29.448 98.6217C29.288 98.1951 29.1867 97.7737 29.144 97.3577C29.1013 96.9311 29.08 96.4991 29.08 96.0617C29.08 94.4404 29.3893 93.0217 30.008 91.8057C30.6267 90.5897 31.496 89.6457 32.616 88.9737C33.7253 88.3017 35.0213 87.9657 36.504 87.9657C38.1787 87.9657 39.6827 88.3657 41.016 89.1657C42.3493 89.9551 43.4053 91.0377 44.184 92.4137C44.952 93.7791 45.336 95.3204 45.336 97.0377ZM45.336 76.3872C45.336 77.5819 45.0267 78.6966 44.408 79.7312C43.7787 80.7552 42.904 81.6512 41.784 82.4192C40.6533 83.1872 39.336 83.7899 37.832 84.2272C36.328 84.6539 34.696 84.8672 32.936 84.8672C31.1547 84.8672 29.5013 84.6539 27.976 84.2272C26.44 83.7899 25.1013 83.1872 23.96 82.4192C22.808 81.6406 21.912 80.7392 21.272 79.7152C20.6213 78.6806 20.296 77.5712 20.296 76.3872C20.296 75.1926 20.6213 74.0832 21.272 73.0592C21.9227 72.0246 22.824 71.1179 23.976 70.3392C25.128 69.5499 26.472 68.9366 28.008 68.4992C29.5333 68.0512 31.176 67.8272 32.936 67.8272C34.6853 67.8272 36.312 68.0459 37.816 68.4832C39.32 68.9099 40.6373 69.5179 41.768 70.3072C42.888 71.0859 43.7627 71.9926 44.392 73.0272C45.0213 74.0619 45.336 75.1819 45.336 76.3872ZM43.592 76.3872C43.592 75.7899 43.4267 75.2832 43.096 74.8672C42.7547 74.4406 42.1893 74.0992 41.4 73.8432C40.6 73.5766 39.512 73.3846 38.136 73.2672C36.7493 73.1392 35.0107 73.0752 32.92 73.0752C30.8293 73.0752 29.0853 73.1392 27.688 73.2672C26.28 73.3846 25.1653 73.5766 24.344 73.8432C23.512 74.0992 22.92 74.4406 22.568 74.8672C22.216 75.2832 22.04 75.7899 22.04 76.3872C22.04 76.9739 22.216 77.4752 22.568 77.8912C22.92 78.3072 23.5067 78.6432 24.328 78.8992C25.1493 79.1552 26.264 79.3419 27.672 79.4592C29.0693 79.5766 30.8187 79.6352 32.92 79.6352C35.0213 79.6352 36.7653 79.5766 38.152 79.4592C39.5387 79.3419 40.6267 79.1552 41.416 78.8992C42.2053 78.6432 42.7653 78.3072 43.096 77.8912C43.4267 77.4752 43.592 76.9739 43.592 76.3872ZM45.336 56.0435C45.336 57.2382 45.0267 58.3528 44.408 59.3875C43.7787 60.4115 42.904 61.3075 41.784 62.0755C40.6533 62.8435 39.336 63.4462 37.832 63.8835C36.328 64.3102 34.696 64.5235 32.936 64.5235C31.1547 64.5235 29.5013 64.3102 27.976 63.8835C26.44 63.4462 25.1013 62.8435 23.96 62.0755C22.808 61.2968 21.912 60.3955 21.272 59.3715C20.6213 58.3368 20.296 57.2275 20.296 56.0435C20.296 54.8488 20.6213 53.7395 21.272 52.7155C21.9227 51.6808 22.824 50.7742 23.976 49.9955C25.128 49.2062 26.472 48.5928 28.008 48.1555C29.5333 47.7075 31.176 47.4835 32.936 47.4835C34.6853 47.4835 36.312 47.7022 37.816 48.1395C39.32 48.5662 40.6373 49.1742 41.768 49.9635C42.888 50.7422 43.7627 51.6488 44.392 52.6835C45.0213 53.7182 45.336 54.8382 45.336 56.0435ZM43.592 56.0435C43.592 55.4462 43.4267 54.9395 43.096 54.5235C42.7547 54.0968 42.1893 53.7555 41.4 53.4995C40.6 53.2328 39.512 53.0408 38.136 52.9235C36.7493 52.7955 35.0107 52.7315 32.92 52.7315C30.8293 52.7315 29.0853 52.7955 27.688 52.9235C26.28 53.0408 25.1653 53.2328 24.344 53.4995C23.512 53.7555 22.92 54.0968 22.568 54.5235C22.216 54.9395 22.04 55.4462 22.04 56.0435C22.04 56.6302 22.216 57.1315 22.568 57.5475C22.92 57.9635 23.5067 58.2995 24.328 58.5555C25.1493 58.8115 26.264 58.9982 27.672 59.1155C29.0693 59.2328 30.8187 59.2915 32.92 59.2915C35.0213 59.2915 36.7653 59.2328 38.152 59.1155C39.5387 58.9982 40.6267 58.8115 41.416 58.5555C42.2053 58.2995 42.7653 57.9635 43.096 57.5475C43.4267 57.1315 43.592 56.6302 43.592 56.0435Z" fill="white"/>
</svg>
